:version 1.10
:name ASF
:units
  mass 1
  length 1
  angle deg
:documentation
  ASF file generated by Kaydara
:root
  axis xyz
  order  tx ty tz rx ry rz
  position 0 0 0
  orientation 0 0 0
:bonedata
  begin
    id 1
    name lfemurDummy
    direction 0.61522 -0.761478 0.204097
    length 5.68318
    axis 0 -0 0 xyz
  end
  begin
    id 2
    name lfemur
    direction 0.34202 -0.939693 -5.84747e-008
    length 16.9147
    axis 0 -0 20 xyz
    dof rx ry rz
    limits( -inf , inf )
( -inf , inf )
( -inf , inf )

  end
  begin
    id 3
    name ltibia
    direction 0.34202 -0.939693 1.20839e-009
    length 18.0532
    axis 0 -0 20 xyz
    dof rz ry rx
    limits( -inf , inf )
( -inf , inf )
( -inf , inf )

  end
  begin
    id 4
    name lfoot
    direction 0.0841971 -0.23133 0.969225
    length 5.23822
    axis -90 7.62852e-016 20 xyz
    dof ry rx rz
    limits( -inf , inf )
( -inf , inf )
( -inf , inf )

  end
  begin
    id 5
    name ltoes
    direction 0 0 0
    length 0
    axis 0 0 0 xyz
    dof rz ry rx
    limits( -inf , inf )
( -inf , inf )
( -inf , inf )

  end
  begin
    id 6
    name rfemurDummy
    direction -0.625247 -0.75382 0.202044
    length 5.74091
    axis 0 -0 0 xyz
  end
  begin
    id 7
    name rfemur
    direction -0.34202 -0.939693 -1.47013e-008
    length 16.4922
    axis 0 -0 -20 xyz
    dof rx ry rz
    limits( -inf , inf )
( -inf , inf )
( -inf , inf )

  end
  begin
    id 8
    name rtibia
    direction -0.34202 -0.939693 -7.74345e-010
    length 18.2421
    axis 0 -0 -20 xyz
    dof rz ry rx
    limits( -inf , inf )
( -inf , inf )
( -inf , inf )

  end
  begin
    id 9
    name rfoot
    direction -0.124331 -0.341598 0.931586
    length 5.45787
    axis -90 -7.62852e-016 -20 xyz
    dof ry rx rz
    limits( -inf , inf )
( -inf , inf )
( -inf , inf )

  end
  begin
    id 10
    name rtoes
    direction 0 0 0
    length 0
    axis 0 0 0 xyz
    dof rz ry rx
    limits( -inf , inf )
( -inf , inf )
( -inf , inf )

  end
  begin
    id 11
    name lowerbackDummy
    direction 0 0 0
    length 0
    axis 0 -0 0 xyz
  end
  begin
    id 12
    name lowerback
    direction -0.0218484 0.994884 -0.0986304
    length 4.45607
    axis 0 -0 0 xyz
    dof rx ry rz
    limits( -inf , inf )
( -inf , inf )
( -inf , inf )

  end
  begin
    id 13
    name upperback
    direction -0.00973057 0.999717 -0.0217111
    length 4.47449
    axis 0 -0 0 xyz
    dof rx ry rz
    limits( -inf , inf )
( -inf , inf )
( -inf , inf )

  end
  begin
    id 14
    name thorax
    direction -0.000928171 0.999699 0.0245198
    length 4.50973
    axis 0 -0 0 xyz
    dof rx ry rz
    limits( -inf , inf )
( -inf , inf )
( -inf , inf )

  end
  begin
    id 15
    name rclavicle
    direction -0.9009 0.425937 -0.0834055
    length 7.28587
    axis 0 -0 0 xyz
    dof rx ry rz
    limits( -inf , inf )
( -inf , inf )
( -inf , inf )

  end
  begin
    id 16
    name rhumerus
    direction -1 -2.23604e-007 -1.42637e-007
    length 13.5704
    axis 180 30 90 xyz
    dof rx ry rz
    limits( -inf , inf )
( -inf , inf )
( -inf , inf )

  end
  begin
    id 17
    name rradius
    direction -1 5.68281e-008 -4.4952e-007
    length 8.06782
    axis 180 30 90 xyz
    dof rz ry rx
    limits( -inf , inf )
( -inf , inf )
( -inf , inf )

  end
  begin
    id 18
    name rwrist
    direction -1 1.51393e-007 1.38143e-007
    length 4.03391
    axis -90 -90 0 xyz
    dof rz rx ry
    limits( -inf , inf )
( -inf , inf )
( -inf , inf )

  end
  begin
    id 19
    name rthumb
    direction 0 0 0
    length 0
    axis 0 0 0 xyz
    dof ry rx rz
    limits( -inf , inf )
( -inf , inf )
( -inf , inf )

  end
  begin
    id 20
    name rhand
    direction -1 -3.34077e-007 -5.59631e-007
    length 1.29744
    axis -90 -90 0 xyz
    dof ry rx rz
    limits( -inf , inf )
( -inf , inf )
( -inf , inf )

  end
  begin
    id 21
    name rfingers
    direction 0 0 0
    length 0
    axis 0 0 0 xyz
    dof rz ry rx
    limits( -inf , inf )
( -inf , inf )
( -inf , inf )

  end
  begin
    id 22
    name lclavicle
    direction 0.940017 0.332249 -0.0773232
    length 8.29589
    axis 0 -0 0 xyz
    dof rx ry rz
    limits( -inf , inf )
( -inf , inf )
( -inf , inf )

  end
  begin
    id 23
    name lhumerus
    direction 1 7.41158e-008 -1.44768e-008
    length 12.0042
    axis 180 -30 -90 xyz
    dof rx ry rz
    limits( -inf , inf )
( -inf , inf )
( -inf , inf )

  end
  begin
    id 24
    name lradius
    direction 1 -1.32972e-007 3.10821e-007
    length 8.1902
    axis 180 -30 -90 xyz
    dof rz ry rx
    limits( -inf , inf )
( -inf , inf )
( -inf , inf )

  end
  begin
    id 25
    name lwrist
    direction 1 3.08957e-007 4.01394e-007
    length 4.09509
    axis -90 90 0 xyz
    dof rz rx ry
    limits( -inf , inf )
( -inf , inf )
( -inf , inf )

  end
  begin
    id 26
    name lthumb
    direction 0 0 0
    length 0
    axis 0 0 0 xyz
    dof ry rx rz
    limits( -inf , inf )
( -inf , inf )
( -inf , inf )

  end
  begin
    id 27
    name lhand
    direction 1 -1.64125e-007 -6.99514e-007
    length 1.37229
    axis -90 90 0 xyz
    dof ry rx rz
    limits( -inf , inf )
( -inf , inf )
( -inf , inf )

  end
  begin
    id 28
    name lfingers
    direction 0 0 0
    length 0
    axis 0 0 0 xyz
    dof rz ry rx
    limits( -inf , inf )
( -inf , inf )
( -inf , inf )

  end
  begin
    id 29
    name lowerneck
    direction -0.030798 0.998024 0.0547665
    length 3.93918
    axis 0 -0 0 xyz
    dof rx ry rz
    limits( -inf , inf )
( -inf , inf )
( -inf , inf )

  end
  begin
    id 30
    name upperneck
    direction 0.0531588 0.996611 -0.0627736
    length 3.95491
    axis 0 -0 0 xyz
    dof rx ry rz
    limits( -inf , inf )
( -inf , inf )
( -inf , inf )

  end
  begin
    id 31
    name head
    direction 0 0 0
    length 0
    axis 0 0 0 xyz
    dof rx ry rz
    limits( -inf , inf )
( -inf , inf )
( -inf , inf )

  end
:hierarchy
  begin
    root lfemurDummy rfemurDummy lowerbackDummy
    lfemurDummy lfemur
    lfemur ltibia
    ltibia lfoot
    lfoot ltoes
    rfemurDummy rfemur
    rfemur rtibia
    rtibia rfoot
    rfoot rtoes
    lowerbackDummy lowerback
    lowerback upperback
    upperback thorax
    thorax rclavicle lclavicle lowerneck
    rclavicle rhumerus
    rhumerus rradius
    rradius rwrist
    rwrist rthumb rhand
    rhand rfingers
    lclavicle lhumerus
    lhumerus lradius
    lradius lwrist
    lwrist lthumb lhand
    lhand lfingers
    lowerneck upperneck
    upperneck head
  end

:SAMPLES-PER-SECOND 30
:FULLY-SPECIFIED
:DEGREES
56
root  11.42857769 38.48222147 -11.97131074 -2.106620073 -49.85770035 2.378240108
lowerback  8.804439545 1.32396996 -0.8070279956
upperback  3.961999893 1.589570045 -1.943470001
thorax  -0.798781991 0.7702789903 -1.698140025
lowerneck  3.615619898 5.176859856 -7.015769958
upperneck  34.17470169 6.124090195 2.349080086
head  10.03979969 1.846840024 2.413229942
lclavicle  0 -9.442270133e-015 7.951389973e-016
lhumerus  6.383269787 -4.17538023 70.41230011
lradius  2.686528745e-031 -2.291594933e-031 139.5359955
lwrist  -1.412450015e-030 -1.765562519e-031 11.35929966
lhand  -1.496451383e-031 -27.76390076 20.11240005
lfingers  90 7.125020027 -90
lthumb  89.89689403 5.08795885 91.16245106
rclavicle  0 -9.442270133e-015 7.951389973e-016
rhumerus  9.203949928 9.957539558 -76.99220276
rradius  -2.741094029e-031 2.226038536e-031 140.9199982
rwrist  7.062250077e-031 8.827812596e-032 -21.96640015
rhand  -7.920061211e-032 -33.2840004 9.303460121
rfingers  -90 -7.125020027 -90
rthumb  -92.93752616 -24.25625642 -97.11982154
rfemur  -12.23579979 14.30049992 5.779300213
rtibia  -0 0 49.32160187
rfoot  -0 -26.36759949 -10.46500015
rtoes  5.373923086 19.29304026 -105.8922705
lfemur  -30.91320038 6.099100113 -2.310220003
ltibia  -0 0 67.94429779
lfoot  -0 0.8132339716 -19.35379982
ltoes  -4.250644065 -19.5611806 -102.515957
57
root  11.60675559 38.68111137 -11.83282221 -1.915770054 -50.39490128 2.391659975
lowerback  8.749879837 1.436660051 -0.4948340058
upperback  4.098090172 1.759490013 -2.173310041
thorax  -0.6066899896 0.8598740101 -2.122900009
lowerneck  4.381060123 5.277959824 -7.029429913
upperneck  34.57419968 6.25688982 1.968950033
head  10.07509995 1.840450048 2.271810055
lclavicle  0 -9.442270133e-015 7.951389973e-016
lhumerus  7.003520012 -3.33781004 70.07610321
lradius  2.669577888e-031 -2.311319523e-031 139.1139984
lwrist  -7.062250077e-031 1.765562519e-031 12.58409977
lhand  -1.496451383e-031 -27.76390076 20.11240005
lfingers  90 7.125020027 -90
lthumb  89.89689403 5.08795885 91.16245106
rclavicle  0 -9.442270133e-015 7.951389973e-016
rhumerus  10.03069973 9.142569542 -76.77880096
rradius  -2.710299806e-031 2.263430802e-031 140.1340027
rwrist  1.412450015e-030 3.531125038e-031 -22.88030052
rhand  -7.920061211e-032 -33.2840004 9.303460121
rfingers  -90 -7.125020027 -90
rthumb  -92.93752616 -24.25625642 -97.11982154
rfemur  -12.51119995 14.56989956 5.455230236
rtibia  -0 0 48.69960022
rfoot  -0 -24.94779968 -10.77630043
rtoes  5.373923086 19.29304026 -105.8922705
lfemur  -31.2173996 6.306570053 -2.067689896
ltibia  -0 0 67.5094986
lfoot  -0 0.6249729991 -18.67480087
ltoes  -4.250644065 -19.5611806 -102.515957
58
root  11.78293303 38.88888922 -11.69526633 -1.932710052 -50.88650131 2.610460043
lowerback  8.77851963 1.418779969 -0.6485000253
upperback  4.246970177 1.720729947 -2.219719887
thorax  -0.4727469981 0.8377889991 -2.079550028
lowerneck  5.044149876 5.531939983 -7.437759876
upperneck  34.99160004 6.651390076 1.486930013
head  10.1232996 1.892930031 2.177000046
lclavicle  0 -9.442270133e-015 7.951389973e-016
lhumerus  7.39399004 -2.025110006 69.79560089
lradius  2.662667633e-031 -2.319276851e-031 138.9429932
lwrist  -7.062250077e-031 1.765562519e-031 13.78989983
lhand  -1.496451383e-031 -27.76390076 20.11240005
lfingers  90 7.125020027 -90
lthumb  89.89689403 5.08795885 91.16245106
rclavicle  0 -9.442270133e-015 7.951389973e-016
rhumerus  11.0017004 8.865440369 -76.40979767
rradius  -2.683927188e-031 2.294641342e-031 139.470993
rwrist  7.062250077e-031 -0 -23.79840088
rhand  -7.920061211e-032 -33.2840004 9.303460121
rfingers  -90 -7.125020027 -90
rthumb  -92.93752616 -24.25625642 -97.11982154
rfemur  -12.7723999 14.68410015 5.00330019
rtibia  -0 0 48.11040115
rfoot  -0 -23.35040092 -11.23950005
rtoes  5.373923086 19.29304026 -105.8922705
lfemur  -31.40940094 6.366919994 -1.932029963
ltibia  -0 0 67.02210236
lfoot  -0 -0.1503490061 -17.57589912
ltoes  -4.250644065 -19.5611806 -102.515957
59
root  11.96886648 39.09311069 -11.56139975 -1.876350045 -51.37559891 2.780610085
lowerback  8.844659805 1.298539996 -0.8951749802
upperback  4.397689819 1.539309978 -2.190459967
thorax  -0.3662540019 0.7418069839 -1.894160032
lowerneck  5.338449955 5.86386013 -8.041060448
upperneck  35.6631012 7.212659836 0.9525240064
head  10.33349991 1.973919988 2.12026
lclavicle  0 -9.442270133e-015 7.951389973e-016
lhumerus  7.818669796 -0.467859 69.56990051
lradius  2.656830365e-031 -2.325961403e-031 138.798996
lwrist  -7.062250077e-031 -1.765562519e-031 15.25329971
lhand  -1.496451383e-031 -27.76390076 20.11240005
lfingers  90 7.125020027 -90
lthumb  89.89689403 5.08795885 91.16245106
rclavicle  0 -9.442270133e-015 7.951389973e-016
rhumerus  12.10379982 9.149499893 -76.22080231
rradius  -2.663356207e-031 2.31848609e-031 138.9600067
rwrist  7.062250077e-031 1.765562519e-031 -24.33060074
rhand  -7.920061211e-032 -33.2840004 9.303460121
rfingers  -90 -7.125020027 -90
rthumb  -92.93752616 -24.25625642 -97.11982154
rfemur  -13.17710018 14.72130013 4.572390079
rtibia  -0 0 47.58470154
rfoot  -0 -21.71640015 -11.78979969
rtoes  5.373923086 19.29304026 -105.8922705
lfemur  -31.63599968 6.376130104 -1.721699953
ltibia  -0 0 66.50610352
lfoot  -0 -1.783489943 -16.42009926
ltoes  -4.250644065 -19.5611806 -102.515957
60
root  12.16702198 39.28200129 -11.41677766 -1.716809988 -51.80039978 2.943650007
lowerback  8.86923027 1.081650019 -1.166499972
upperback  4.510719776 1.229410052 -2.147629976
thorax  -0.2777180076 0.580918014 -1.669100046
lowerneck  5.395880222 6.241330147 -8.876179695
upperneck  36.40530014 7.834340096 0.5708029866
head  10.60229969 2.055439949 2.167309999
lclavicle  0 -9.442270133e-015 7.951389973e-016
lhumerus  8.287449837 1.19738996 69.40270233
lradius  2.65512495e-031 -2.327907974e-031 138.7570038
lwrist  -7.062250077e-031 1.765562519e-031 17.00970078
lhand  -1.496451383e-031 -27.76390076 20.11240005
lfingers  90 7.125020027 -90
lthumb  89.89689403 5.08795885 91.16245106
rclavicle  0 -9.442270133e-015 7.951389973e-016
rhumerus  13.4531002 9.533720016 -76.01959991
rradius  -2.643962021e-031 2.340578747e-031 138.4830017
rwrist  1.412450015e-030 4.413906298e-032 -25.0279007
rhand  -7.920061211e-032 -33.2840004 9.303460121
rfingers  -90 -7.125020027 -90
rthumb  -92.93752616 -24.25625642 -97.11982154
rfemur  -13.71049976 14.68179989 4.136569977
rtibia  -0 0 47.16730118
rfoot  -0 -20.27149963 -12.56120014
rtoes  5.373923086 19.29304026 -105.8922705
lfemur  -31.99970055 6.300710201 -1.508209944
ltibia  -0 0 65.96859741
lfoot  -0 -3.439529896 -15.02719975
ltoes  -4.250644065 -19.5611806 -102.515957
